<svg width="24" height="24" viewBox="0 0 24 24" fill="none" xmlns="http://www.w3.org/2000/svg">
<path fill-rule="evenodd" clip-rule="evenodd" d="M21 7.5C19.067 7.5 17.5 5.933 17.5 4C17.5 3.00523 17.915 2.1074 18.5813 1.47018C18.0789 1.32678 17.5484 1.25 17 1.25H7C3.82436 1.25 1.25 3.82436 1.25 7V17C1.25 20.1756 3.82436 22.75 7 22.75H17C20.1756 22.75 22.75 20.1756 22.75 17V7.03176C22.2352 7.32956 21.6375 7.5 21 7.5ZM20.1502 2.18898C21.2617 2.91826 22.1053 4.02236 22.5012 5.32158C22.1347 5.73756 21.598 6 21 6C19.8954 6 19 5.10457 19 4C19 3.19927 19.4706 2.50844 20.1502 2.18898ZM6.50612 15.3144C6.19439 15.0417 6.16281 14.5678 6.43557 14.2561L9.93557 10.2561C10.2037 9.94969 10.6673 9.91317 10.9801 10.1738L13.4177 12.2051L16.4356 8.75612C16.7083 8.44439 17.1822 8.41281 17.4939 8.68557C17.8056 8.95833 17.8372 9.43215 17.5644 9.74388L14.0644 13.7439C13.7963 14.0503 13.3327 14.0868 13.0199 13.8262L10.5823 11.7949L7.56443 15.2439C7.29167 15.5556 6.81785 15.5872 6.50612 15.3144Z" fill="white"/>
<circle cx="2" cy="2" r="2" transform="matrix(-1 0 0 1 23 2)" fill="white"/>
</svg>
