<svg width="24" height="24" viewBox="0 0 24 24" fill="none" xmlns="http://www.w3.org/2000/svg">
<path fill-rule="evenodd" clip-rule="evenodd" d="M5.33333 18.2222C3.49238 18.2222 2 16.7298 2 14.8889C2 13.0606 3.52707 11.554 5.34902 11.5556C5.35421 11.5556 5.3586 11.5516 5.35907 11.5465C5.64402 8.43609 8.25974 6 11.4444 6C13.8351 6 15.9052 7.37277 16.9093 9.37305C16.9113 9.3769 16.9155 9.37908 16.9198 9.37847C19.5452 9.00249 22 11.1049 22 13.7778C22 16.0824 20.2459 17.9773 18 18.2003L12.75 18.2099L12.75 14.5C12.75 14.0858 12.4142 13.75 12 13.75C11.5858 13.75 11.25 14.0858 11.25 14.5L11.25 18.2126L6 18.2222H5.33333ZM11.25 18.2126L11.25 20.1894L10.0303 18.9697C9.73744 18.6768 9.26256 18.6768 8.96967 18.9697C8.67678 19.2626 8.67678 19.7375 8.96967 20.0303L11.1161 22.1768C11.6043 22.6649 12.3957 22.6649 12.8839 22.1768L15.0303 20.0303C15.3232 19.7375 15.3232 19.2626 15.0303 18.9697C14.7374 18.6768 14.2625 18.6768 13.9696 18.9697L12.75 20.1893L12.75 18.2099L11.25 18.2126Z" fill="white"/>
</svg>
