<svg width="24" height="24" viewBox="0 0 24 24" fill="none" xmlns="http://www.w3.org/2000/svg">
<path d="M5 7.5C5 6.67157 5.67157 6 6.5 6H17.5C18.3284 6 19 6.67157 19 7.5C19 8.32843 18.3284 9 17.5 9H6.5C5.67157 9 5 8.32843 5 7.5Z" fill="white"/>
<path fill-rule="evenodd" clip-rule="evenodd" d="M6.77061 19.2492L6.03857 10.4648C6.18894 10.488 6.34298 10.5001 6.49984 10.5001H17.4998C17.6567 10.5001 17.8108 10.488 17.9611 10.4648L17.2291 19.2492C17.0995 20.8041 15.7997 22.0001 14.2394 22.0001H9.76024C8.19998 22.0001 6.90018 20.8041 6.77061 19.2492ZM13.25 16C13.25 15.3096 12.6904 14.75 12 14.75C11.3096 14.75 10.75 15.3096 10.75 16C10.75 16.6904 11.3096 17.25 12 17.25C12.6904 17.25 13.25 16.6904 13.25 16ZM12 13.25C13.5188 13.25 14.75 14.4812 14.75 16C14.75 17.5188 13.5188 18.75 12 18.75C10.4812 18.75 9.25 17.5188 9.25 16C9.25 14.4812 10.4812 13.25 12 13.25Z" fill="white"/>
<path fill-rule="evenodd" clip-rule="evenodd" d="M9 2C7.89543 2 7 2.89543 7 4V4.5H17V4C17 2.89543 16.1046 2 15 2H9Z" fill="white"/>
</svg>
