<svg width="24" height="24" viewBox="0 0 24 24" fill="none" xmlns="http://www.w3.org/2000/svg">
<path fill-rule="evenodd" clip-rule="evenodd" d="M1.25 8C1.25 5.37665 3.37665 3.25 6 3.25H18C20.6234 3.25 22.75 5.37665 22.75 8V9.22305C22.75 9.78862 22.3557 10.1979 21.9292 10.345C21.242 10.5819 20.75 11.2345 20.75 12C20.75 12.7655 21.242 13.4181 21.9292 13.655C22.3557 13.8021 22.75 14.2114 22.75 14.777V16C22.75 18.6234 20.6234 20.75 18 20.75H6C3.37665 20.75 1.25 18.6234 1.25 16V14.777C1.25 14.2114 1.64428 13.8021 2.07079 13.655C2.75802 13.4181 3.25 12.7655 3.25 12C3.25 11.2345 2.75802 10.5819 2.07079 10.345C1.64428 10.1979 1.25 9.78862 1.25 9.22305V8ZM12.399 8.52831C12.1989 8.26342 11.8011 8.26342 11.601 8.52831L10.6106 9.83976C10.5507 9.91897 10.4687 9.97859 10.3748 10.011L8.82152 10.5477C8.50778 10.6561 8.38483 11.0345 8.57493 11.3067L9.51613 12.6539C9.57298 12.7353 9.60432 12.8317 9.60616 12.931L9.6366 14.5741C9.64275 14.906 9.96464 15.1399 10.2822 15.0432L11.8543 14.5644C11.9493 14.5354 12.0507 14.5354 12.1457 14.5644L13.7178 15.0432C14.0354 15.1399 14.3573 14.906 14.3634 14.5741L14.3938 12.931C14.3957 12.8317 14.427 12.7353 14.4839 12.6539L15.4251 11.3067C15.6152 11.0345 15.4922 10.6561 15.1785 10.5477L13.6252 10.011C13.5313 9.97859 13.4493 9.91897 13.3894 9.83976L12.399 8.52831Z" fill="white"/>
</svg>
