<svg width="24" height="24" viewBox="0 0 24 24" fill="none" xmlns="http://www.w3.org/2000/svg">
<path fill-rule="evenodd" clip-rule="evenodd" d="M23 11.75L23 16.75C23 18.9591 21.2091 20.75 19 20.75L7 20.75C4.79086 20.75 3 18.9591 3 16.75L3 11.75C3 9.54086 4.79086 7.75 7 7.75L9 7.75L12.25 7.75L12.25 13.9393L10.5303 12.2197C10.2374 11.9268 9.76256 11.9268 9.46967 12.2197C9.17678 12.5126 9.17678 12.9874 9.46967 13.2803L11.7626 15.5732C12.446 16.2566 13.554 16.2566 14.2374 15.5732L16.5303 13.2803C16.8232 12.9874 16.8232 12.5126 16.5303 12.2197C16.2374 11.9268 15.7626 11.9268 15.4697 12.2197L13.75 13.9393L13.75 7.75L17 7.75L19 7.75C21.2091 7.75 23 9.54086 23 11.75ZM13.75 7.75L13.75 2.75C13.75 2.33579 13.4142 2 13 2C12.5858 2 12.25 2.33579 12.25 2.75L12.25 7.75L13.75 7.75Z" fill="white"/>
</svg>
