<svg width="24" height="24" viewBox="0 0 24 24" fill="none" xmlns="http://www.w3.org/2000/svg">
<path fill-rule="evenodd" clip-rule="evenodd" d="M1.25 7C1.25 3.82436 3.82436 1.25 7 1.25H17C20.1756 1.25 22.75 3.82436 22.75 7V17C22.75 20.1756 20.1756 22.75 17 22.75H7C3.82436 22.75 1.25 20.1756 1.25 17V7ZM9.37596 16.416C9.52015 16.6323 9.76604 16.7585 10.0258 16.7496C10.2856 16.7406 10.5222 16.5978 10.6512 16.3721L13.9559 10.5889L15.3292 13.3354C15.4562 13.5895 15.7159 13.75 16 13.75H18C18.4142 13.75 18.75 13.4142 18.75 13C18.75 12.5858 18.4142 12.25 18 12.25H16.4635L14.6708 8.66459C14.5471 8.41719 14.2973 8.25796 14.0208 8.25029C13.7443 8.24261 13.486 8.38774 13.3488 8.6279L9.9509 14.5743L8.62404 12.584C8.48494 12.3753 8.25076 12.25 8 12.25H6C5.58579 12.25 5.25 12.5858 5.25 13C5.25 13.4142 5.58579 13.75 6 13.75H7.59861L9.37596 16.416Z" fill="white"/>
</svg>
