<svg width="24" height="24" viewBox="0 0 24 24" fill="none" xmlns="http://www.w3.org/2000/svg">
<path d="M2 18C2 17.4477 2.44772 17 3 17H21C21.5523 17 22 17.4477 22 18V19C22 19.5523 21.5523 20 21 20H3C2.44772 20 2 19.5523 2 19V18Z" fill="white"/>
<path fill-rule="evenodd" clip-rule="evenodd" d="M9.03915 5.53287C9.09437 5.57695 9.14902 5.62056 9.20328 5.66229C9.41958 5.82861 9.69722 5.92857 10 5.92857H14C14.3028 5.92857 14.5804 5.82861 14.7967 5.66229C14.851 5.62057 14.9056 5.57695 14.9609 5.53287C15.2848 5.27431 15.6285 5 16.03 5H20C20.5523 5 21 5.41574 21 5.92857V15.5H3V5.92857C3 5.41574 3.44772 5 4 5H7.96999C8.37154 5 8.71521 5.27431 9.03915 5.53287ZM21 17H3V17.0714C3 17.5843 3.44772 18 4 18H20C20.5523 18 21 17.5843 21 17.0714V17Z" fill="white"/>
</svg>
