<svg width="24" height="24" viewBox="0 0 24 24" fill="none" xmlns="http://www.w3.org/2000/svg">
<rect x="4" y="9" width="16" height="12" rx="4" stroke="white" stroke-width="1.5"/>
<path fill-rule="evenodd" clip-rule="evenodd" d="M8 8.25C5.37665 8.25 3.25 10.3766 3.25 13V17C3.25 19.6234 5.37665 21.75 8 21.75H16C18.6234 21.75 20.75 19.6234 20.75 17V13C20.75 10.3766 18.6234 8.25 16 8.25H8ZM12.1211 16.0607L10.6515 17.5303C10.3586 17.8232 9.88369 17.8232 9.5908 17.5303C9.2979 17.2374 9.2979 16.7625 9.5908 16.4696L11.0604 15L9.5908 13.5304C9.2979 13.2375 9.2979 12.7626 9.5908 12.4697C9.88369 12.1768 10.3586 12.1768 10.6515 12.4697L12.1211 13.9393L13.5908 12.4697C13.8837 12.1768 14.3585 12.1768 14.6514 12.4697C14.9443 12.7626 14.9443 13.2374 14.6514 13.5303L13.1818 15L14.6514 16.4697C14.9443 16.7626 14.9443 17.2374 14.6514 17.5303C14.3585 17.8232 13.8837 17.8232 13.5908 17.5303L12.1211 16.0607Z" fill="white"/>
<path d="M16 9V7C16 4.79086 14.2091 3 12 3V3C9.79086 3 8 4.79086 8 7L8 9" stroke="white" stroke-width="1.5"/>
</svg>
