<svg width="24" height="24" viewBox="0 0 24 24" fill="none" xmlns="http://www.w3.org/2000/svg">
<path fill-rule="evenodd" clip-rule="evenodd" d="M2.5 17.3359L2.5 12.3359C2.5 10.1268 4.29086 8.33594 6.5 8.33594L11.75 8.33594L11.75 15.3359C11.75 15.7502 12.0858 16.0859 12.5 16.0859C12.9142 16.0859 13.25 15.7502 13.25 15.3359L13.25 8.33594L18.5 8.33594C20.7091 8.33594 22.5 10.1268 22.5 12.3359L22.5 17.3359C22.5 19.5451 20.7091 21.3359 18.5 21.3359L16.5 21.3359L8.5 21.3359L6.5 21.3359C4.29086 21.3359 2.5 19.5451 2.5 17.3359ZM13.25 8.33594L13.25 4.1466L14.9697 5.86627C15.2626 6.15916 15.7374 6.15916 16.0303 5.86627C16.3232 5.57337 16.3232 5.0985 16.0303 4.80561L13.7374 2.51271C13.054 1.8293 11.946 1.8293 11.2626 2.51271L8.96967 4.80561C8.67678 5.0985 8.67678 5.57337 8.96967 5.86627C9.26256 6.15916 9.73744 6.15916 10.0303 5.86627L11.75 4.1466L11.75 8.33594L13.25 8.33594Z" fill="white"/>
</svg>
