<svg width="24" height="24" viewBox="0 0 24 24" fill="none" xmlns="http://www.w3.org/2000/svg">
<path fill-rule="evenodd" clip-rule="evenodd" d="M12 1.25C6.06294 1.25 1.25 6.06294 1.25 12C1.25 17.9371 6.06294 22.75 12 22.75C17.9371 22.75 22.75 17.9371 22.75 12C22.75 6.06294 17.9371 1.25 12 1.25ZM9 12C9 13.6569 10.3431 15 12 15C13.6569 15 15 13.6569 15 12C15 10.3431 13.6569 9 12 9C10.3431 9 9 10.3431 9 12ZM9.06064 4.82904C9.4439 4.67194 9.88196 4.85528 10.0391 5.23855C10.1962 5.62182 10.0128 6.05987 9.62955 6.21697C8.46997 6.69228 7.48007 7.5052 6.78834 8.55021C6.5597 8.89561 6.09436 8.99026 5.74896 8.76163C5.40356 8.533 5.30891 8.06766 5.53754 7.72226C6.39528 6.42645 7.62277 5.41842 9.06064 4.82904Z" fill="white"/>
</svg>
