<svg width="24" height="24" viewBox="0 0 24 24" fill="none" xmlns="http://www.w3.org/2000/svg">
<path d="M12 7.5V7C12 6.17157 11.3284 5.5 10.5 5.5V5.5C9.67157 5.5 9 4.82843 9 4V3" stroke="white" stroke-width="1.5" stroke-linecap="round"/>
<path fill-rule="evenodd" clip-rule="evenodd" d="M7 7.25C3.82436 7.25 1.25 9.82436 1.25 13V17C1.25 20.1756 3.82436 22.75 7 22.75H17C20.1756 22.75 22.75 20.1756 22.75 17V13C22.75 9.82436 20.1756 7.25 17 7.25H7ZM19 13.5C19 14.0523 18.5523 14.5 18 14.5C17.4477 14.5 17 14.0523 17 13.5C17 12.9477 17.4477 12.5 18 12.5C18.5523 12.5 19 12.9477 19 13.5ZM16 17.5C16.5523 17.5 17 17.0523 17 16.5C17 15.9477 16.5523 15.5 16 15.5C15.4477 15.5 15 15.9477 15 16.5C15 17.0523 15.4477 17.5 16 17.5ZM8 12.25C8.41421 12.25 8.75 12.5858 8.75 13V14.25H10C10.4142 14.25 10.75 14.5858 10.75 15C10.75 15.4142 10.4142 15.75 10 15.75H8.75V17C8.75 17.4142 8.41421 17.75 8 17.75C7.58579 17.75 7.25 17.4142 7.25 17V15.75H6C5.58579 15.75 5.25 15.4142 5.25 15C5.25 14.5858 5.58579 14.25 6 14.25H7.25V13C7.25 12.5858 7.58579 12.25 8 12.25Z" fill="white"/>
</svg>
