<svg width="24" height="24" viewBox="0 0 24 24" fill="none" xmlns="http://www.w3.org/2000/svg">
<path fill-rule="evenodd" clip-rule="evenodd" d="M12 1.25C6.06294 1.25 1.25 6.06294 1.25 12C1.25 17.9371 6.06294 22.75 12 22.75C17.9371 22.75 22.75 17.9371 22.75 12C22.75 6.06294 17.9371 1.25 12 1.25ZM10.2998 8.75C10.714 8.75 11.0498 9.08579 11.0498 9.5V14.5C11.0498 14.9142 10.714 15.25 10.2998 15.25C9.88559 15.25 9.5498 14.9142 9.5498 14.5V9.5C9.5498 9.08579 9.88559 8.75 10.2998 8.75ZM14.5498 9.5C14.5498 9.08579 14.214 8.75 13.7998 8.75C13.3856 8.75 13.0498 9.08579 13.0498 9.5V14.5C13.0498 14.9142 13.3856 15.25 13.7998 15.25C14.214 15.25 14.5498 14.9142 14.5498 14.5V9.5Z" fill="white"/>
</svg>
