<svg width="24" height="24" viewBox="0 0 24 24" fill="none" xmlns="http://www.w3.org/2000/svg">
<path fill-rule="evenodd" clip-rule="evenodd" d="M19.6721 1.63636C21.286 1.42529 22.616 2.75528 22.4049 4.36915C22.0964 6.72815 21.2492 10.7356 18.8537 13.3185C18.0915 14.1403 17.1709 14.8996 16.2241 15.5742L16.5008 17.5107C16.5787 18.056 16.3953 18.6061 16.0058 18.9956L12.8238 22.1776C11.8041 23.1973 10.0579 22.6152 9.85396 21.1876L9.42969 18.2178L9.43096 18.2176C9.16001 18.0865 8.90878 17.9091 8.6899 17.6902L6.35104 15.3513C6.13215 15.1325 5.95476 14.8812 5.82361 14.6102L5.82343 14.6116L2.85358 14.1873C1.42599 13.9834 0.843924 12.2372 1.86363 11.2175L5.04561 8.03548C5.4351 7.64598 5.98524 7.4626 6.53053 7.5405L8.467 7.81714C9.14164 6.87036 9.90096 5.9497 10.7228 5.1875C13.3056 2.792 17.3131 1.94489 19.6721 1.63636ZM4.33852 15.4601C4.63142 15.753 4.63142 16.2278 4.33852 16.5207L2.92431 17.9349C2.63142 18.2278 2.15654 18.2278 1.86365 17.9349C1.57076 17.6421 1.57076 17.1672 1.86365 16.8743L3.27786 15.4601C3.57076 15.1672 4.04563 15.1672 4.33852 15.4601ZM6.45984 17.5814C6.75274 17.8743 6.75274 18.3492 6.45984 18.6421L3.63142 21.4705C3.33852 21.7634 2.86365 21.7634 2.57076 21.4705C2.27786 21.1776 2.27786 20.7027 2.57076 20.4098L5.39918 17.5814C5.69208 17.2885 6.16695 17.2885 6.45984 17.5814ZM8.58116 19.7027C8.87405 19.9956 8.87405 20.4705 8.58116 20.7634L7.16695 22.1776C6.87406 22.4705 6.39918 22.4705 6.10629 22.1776C5.8134 21.8847 5.8134 21.4098 6.10629 21.1169L7.5205 19.7027C7.8134 19.4098 8.28827 19.4098 8.58116 19.7027ZM13.7074 10.3335C12.9263 9.55241 12.9263 8.28608 13.7074 7.50503C14.4884 6.72399 15.7547 6.72399 16.5358 7.50503C17.3168 8.28608 17.3168 9.55241 16.5358 10.3335C15.7547 11.1145 14.4884 11.1145 13.7074 10.3335Z" fill="white"/>
</svg>
