<svg width="24" height="24" viewBox="0 0 24 24" fill="none" xmlns="http://www.w3.org/2000/svg">
<path fill-rule="evenodd" clip-rule="evenodd" d="M9 7.75C8.0335 7.75 7.25 6.9665 7.25 6V1.25H6C3.37665 1.25 1.25 3.37665 1.25 6V18C1.25 20.3682 2.98301 22.3315 5.25 22.6911V15C5.25 13.4812 6.48122 12.25 8 12.25H16C17.5188 12.25 18.75 13.4812 18.75 15V22.6911C21.017 22.3315 22.75 20.3682 22.75 18V9.24264C22.75 8.24808 22.3549 7.29425 21.6516 6.59099L17.409 2.34835C17.2081 2.14749 16.9869 1.97177 16.75 1.82321V6C16.75 6.9665 15.9665 7.75 15 7.75H9ZM15.25 1.28249C15.0876 1.26096 14.923 1.25 14.7574 1.25H8.75V6C8.75 6.13807 8.86193 6.25 9 6.25H15C15.1381 6.25 15.25 6.13807 15.25 6V1.28249ZM6.75 22.75H17.25V15C17.25 14.3096 16.6904 13.75 16 13.75H8C7.30964 13.75 6.75 14.3096 6.75 15V22.75Z" fill="white"/>
</svg>
