<svg width="24" height="24" viewBox="0 0 24 24" fill="none" xmlns="http://www.w3.org/2000/svg">
<path fill-rule="evenodd" clip-rule="evenodd" d="M4 7.03244C4 6.66928 4.19689 6.33466 4.51436 6.15829L11.5144 2.2694C11.8164 2.10161 12.1836 2.10161 12.4856 2.2694L19.4856 6.15829C19.8031 6.33466 20 6.66928 20 7.03244V11.6711C20 15.3028 18.0311 18.649 14.8564 20.4127L12.4856 21.7298C12.1836 21.8976 11.8164 21.8976 11.5144 21.7298L9.14357 20.4127C5.96892 18.649 4 15.3028 4 11.6711V7.03244ZM14.773 9.46927C15.0659 9.76216 15.0659 10.237 14.773 10.5299L13.182 12.1209L14.773 13.7119C15.0659 14.0048 15.0659 14.4797 14.773 14.7726C14.4801 15.0655 14.0052 15.0655 13.7123 14.7726L12.1213 13.1816L10.5303 14.7726C10.2374 15.0655 9.76256 15.0655 9.46967 14.7726C9.17678 14.4797 9.17678 14.0048 9.46967 13.7119L11.0606 12.1209L9.46967 10.53C9.17678 10.2371 9.17678 9.76219 9.46967 9.4693C9.76256 9.17641 10.2374 9.17641 10.5303 9.4693L12.1213 11.0603L13.7123 9.46927C14.0052 9.17637 14.4801 9.17637 14.773 9.46927Z" fill="white"/>
</svg>
