<svg width="24" height="24" viewBox="0 0 24 24" fill="none" xmlns="http://www.w3.org/2000/svg">
<path fill-rule="evenodd" clip-rule="evenodd" d="M4.51436 6.15829C4.19689 6.33466 4 6.66928 4 7.03244V11.6711C4 15.3028 5.96892 18.649 9.14357 20.4127L11.5144 21.7298C11.8164 21.8976 12.1836 21.8976 12.4856 21.7298L14.8564 20.4127C18.0311 18.649 20 15.3028 20 11.6711V7.03244C20 6.66928 19.8031 6.33466 19.4856 6.15829L12.4856 2.2694C12.1836 2.10161 11.8164 2.10161 11.5144 2.2694L4.51436 6.15829ZM10.9697 14.5299C11.2626 14.8228 11.7374 14.8228 12.0303 14.5299L16.0303 10.5299C16.3232 10.237 16.3232 9.76216 16.0303 9.46927C15.7374 9.17637 15.2626 9.17637 14.9697 9.46926L11.5 12.9389L10.0303 11.4693C9.73744 11.1764 9.26256 11.1764 8.96967 11.4693C8.67678 11.7622 8.67678 12.237 8.96967 12.5299L10.9697 14.5299Z" fill="white"/>
</svg>
