<svg width="24" height="24" viewBox="0 0 24 24" fill="none" xmlns="http://www.w3.org/2000/svg">
<path fill-rule="evenodd" clip-rule="evenodd" d="M2.02783 11.2496C2.393 6.32469 6.32518 2.39251 11.2501 2.02734V11.2496H8.72338C8.53321 8.5928 7.34069 6.20856 5.51978 4.45885L4.48048 5.54044C6.02143 7.02115 7.03223 9.02176 7.21885 11.2496H2.02783ZM2.02783 12.7496C2.393 17.6746 6.32518 21.6068 11.2501 21.9719V12.7496H8.72338C8.53321 15.4065 7.34069 17.7907 5.51978 19.5404L4.48048 18.4588C6.02144 16.9781 7.03223 14.9775 7.21885 12.7496H2.02783ZM12.7501 12.7496V21.9719C14.9122 21.8116 16.883 20.9639 18.4446 19.6464C16.6393 17.8626 15.4616 15.4421 15.2759 12.7496H12.7501ZM16.7801 12.7496C16.9632 15.0328 17.9749 17.0814 19.5159 18.5963C20.9081 17.0114 21.8069 14.9826 21.9724 12.7496H16.7801ZM21.9724 11.2496H16.7801C16.9631 8.96639 17.9748 6.91776 19.5158 5.40284C20.908 6.98772 21.8069 9.01663 21.9724 11.2496ZM15.2759 11.2496H12.7501V2.02734C14.9121 2.18765 16.8828 3.03536 18.4444 4.35269C16.6392 6.13656 15.4615 8.55712 15.2759 11.2496ZM19.0045 4.86245L19.276 5.13945C19.1873 5.04538 19.0967 4.95303 19.0045 4.86245ZM19.2842 18.8512L18.996 19.1452C19.094 19.0492 19.1901 18.9511 19.2842 18.8512Z" fill="white"/>
</svg>
