<svg width="108" height="108" viewBox="0 0 108 108" fill="none" xmlns="http://www.w3.org/2000/svg">
<g filter="url(#filter0_d_193_4047)">
<circle cx="54" cy="51" r="50" fill="#FCB600"/>
</g>
<g clip-path="url(#clip0_193_4047)">
<path d="M26.6277 39.6861L34.9059 46.3086C35.4524 46.7459 36.1414 46.9854 36.8529 46.9854H71.1468C71.8585 46.9854 72.5474 46.7459 73.0939 46.3086L81.3722 39.6861M37.2725 57.2043H37.3029M70.7274 57.2043H70.7579M42.3231 29.4671H65.677C67.8597 29.4671 69.8753 30.5899 70.958 32.4094L79.7694 47.2122C80.8196 48.9769 81.3722 50.974 81.3722 53.0067V70.343C81.3722 71.9556 80.0106 73.2627 78.3308 73.2627H75.2895C73.6097 73.2627 72.2481 71.9556 72.2481 70.343V67.4233H35.7518V70.343C35.7518 71.9556 34.3901 73.2627 32.7104 73.2627H29.669C27.9894 73.2627 26.6277 71.9556 26.6277 70.343V53.0067C26.6277 50.974 27.1802 48.9769 28.2306 47.2122L37.0418 32.4094C38.1248 30.5899 40.1402 29.4671 42.3231 29.4671ZM38.7931 57.2043C38.7931 58.0105 38.1123 58.6642 37.2725 58.6642C36.4326 58.6642 35.7518 58.0105 35.7518 57.2043C35.7518 56.3982 36.4326 55.7445 37.2725 55.7445C38.1123 55.7445 38.7931 56.3982 38.7931 57.2043ZM72.2481 57.2043C72.2481 58.0105 71.5672 58.6642 70.7274 58.6642C69.8877 58.6642 69.2068 58.0105 69.2068 57.2043C69.2068 56.3982 69.8877 55.7445 70.7274 55.7445C71.5672 55.7445 72.2481 56.3982 72.2481 57.2043Z" stroke="#8F010A" stroke-width="6" stroke-linecap="round" stroke-linejoin="round"/>
</g>
<defs>
<filter id="filter0_d_193_4047" x="0" y="0" width="108" height="108" filterUnits="userSpaceOnUse" color-interpolation-filters="sRGB">
<feFlood flood-opacity="0" result="BackgroundImageFix"/>
<feColorMatrix in="SourceAlpha" type="matrix" values="0 0 0 0 0 0 0 0 0 0 0 0 0 0 0 0 0 0 127 0" result="hardAlpha"/>
<feOffset dy="3"/>
<feGaussianBlur stdDeviation="2"/>
<feComposite in2="hardAlpha" operator="out"/>
<feColorMatrix type="matrix" values="0 0 0 0 0 0 0 0 0 0 0 0 0 0 0 0 0 0 0.25 0"/>
<feBlend mode="normal" in2="BackgroundImageFix" result="effect1_dropShadow_193_4047"/>
<feBlend mode="normal" in="SourceGraphic" in2="effect1_dropShadow_193_4047" result="shape"/>
</filter>
<clipPath id="clip0_193_4047">
<rect width="59.854" height="59.854" fill="white" transform="translate(24.438 21.4379)"/>
</clipPath>
</defs>
</svg>
