<svg width="24" height="24" viewBox="0 0 24 24" fill="none" xmlns="http://www.w3.org/2000/svg">
<path fill-rule="evenodd" clip-rule="evenodd" d="M8.86821 3.92434C7.67419 2.73032 5.73532 2.67476 4.53818 3.87189L3.25142 5.15866C1.9437 6.46638 2.04952 8.60577 2.81323 10.6873C3.60079 12.8337 5.18409 15.2292 7.35299 17.3981C9.52188 19.567 11.9173 21.1503 14.0638 21.9379C16.1453 22.7016 18.2847 22.8074 19.5924 21.4997L20.8792 20.2129C22.0763 19.0158 22.0208 17.0769 20.8267 15.8829L18.8337 13.8898C17.6396 12.6958 15.7008 12.6402 14.5036 13.8373L14.2272 14.1137C14.019 14.3219 13.6814 14.3444 13.4415 14.1465C12.936 13.7293 12.4353 13.2819 11.9522 12.7988C11.4692 12.3158 11.0218 11.815 10.6046 11.3095C10.4067 11.0697 10.4291 10.7321 10.6374 10.5238L10.9137 10.2475C12.1109 9.05032 12.0553 7.11145 10.8613 5.91743L8.86821 3.92434Z" fill="white"/>
<path d="M16 8.99996L21 4" stroke="white" stroke-width="1.5" stroke-linecap="round" stroke-linejoin="round"/>
<path d="M16 4.00004L21 9" stroke="white" stroke-width="1.5" stroke-linecap="round" stroke-linejoin="round"/>
</svg>
