<svg width="24" height="24" viewBox="0 0 24 24" fill="none" xmlns="http://www.w3.org/2000/svg">
<path d="M19 5L4 20" stroke="white" stroke-width="1.5" stroke-linecap="round" stroke-linejoin="round"/>
<path fill-rule="evenodd" clip-rule="evenodd" d="M4.2877 2.87091C5.48483 1.67378 7.4237 1.72934 8.61772 2.92336L10.6108 4.91645C11.8048 6.11047 11.8604 8.04935 10.6633 9.24648L10.3869 9.52286C10.1786 9.73109 10.1562 10.0687 10.3541 10.3086C10.7713 10.8141 11.2187 11.3148 11.7018 11.7979C11.9441 12.0402 12.191 12.2736 12.4406 12.4987L7.83739 17.102C7.59004 16.8745 7.34485 16.6395 7.1025 16.3971C4.9336 14.2282 3.3503 11.8328 2.56274 9.68628C1.79903 7.60479 1.69321 5.4654 3.00093 4.15768L4.2877 2.87091ZM8.97651 18.0841C10.5997 19.394 12.2708 20.3709 13.8133 20.9369C15.8948 21.7006 18.0342 21.8064 19.3419 20.4987L20.6287 19.2119C21.8258 18.0148 21.7703 16.0759 20.5763 14.8819L18.5832 12.8888C17.3891 11.6948 15.4503 11.6392 14.2531 12.8364L13.9768 13.1127C13.9397 13.1498 13.8986 13.1809 13.8546 13.206L8.97651 18.0841Z" fill="white"/>
</svg>
