<svg width="24" height="24" viewBox="0 0 24 24" fill="none" xmlns="http://www.w3.org/2000/svg">
<path fill-rule="evenodd" clip-rule="evenodd" d="M4 6.42871C2.89543 6.42871 2 7.32414 2 8.42871V10.0835C2 10.9667 2.57934 11.7453 3.42531 11.9991L10.8506 14.2267C11.6004 14.4516 12.3996 14.4516 13.1494 14.2267L20.5747 11.9991C21.4207 11.7453 22 10.9667 22 10.0835V8.42871C22 7.32414 21.1046 6.42871 20 6.42871H4ZM12.75 9.85742C12.75 9.44321 12.4142 9.10742 12 9.10742C11.5858 9.10742 11.25 9.44321 11.25 9.85742V11.5717C11.25 11.9859 11.5858 12.3217 12 12.3217C12.4142 12.3217 12.75 11.9859 12.75 11.5717V9.85742Z" fill="white"/>
<path fill-rule="evenodd" clip-rule="evenodd" d="M2.0835 13.0128V17.0001C2.0835 19.6235 4.21015 21.7501 6.8335 21.7501H17.1668C19.7902 21.7501 21.9168 19.6235 21.9168 17.0001V13.0126C21.6401 13.1937 21.3344 13.3376 21.0057 13.4362L13.5804 15.6638C12.5495 15.973 11.4505 15.973 10.4196 15.6638L2.99429 13.4362C2.66571 13.3376 2.36012 13.1938 2.0835 13.0128ZM2.14511 10.832L12.0002 12.5003L21.8549 10.8321C21.6323 11.3832 21.1694 11.821 20.5747 11.9994L13.1494 14.227C12.3996 14.4519 11.6004 14.4519 10.8506 14.227L3.42531 11.9994C2.83058 11.821 2.36763 11.3832 2.14511 10.832ZM11.9995 14.0002L12.0001 14.0003L12 14.0003L11.9995 14.0002Z" fill="white"/>
<path d="M15.3332 6.42855V5C15.3332 3.89543 14.4377 3 13.3332 3H10.6665C9.56193 3 8.6665 3.89543 8.6665 5L8.6665 6.42855" stroke="white" stroke-width="1.5"/>
</svg>
