<svg width="24" height="24" viewBox="0 0 24 24" fill="none" xmlns="http://www.w3.org/2000/svg">
<path fill-rule="evenodd" clip-rule="evenodd" d="M5.33333 18.2222C3.49238 18.2222 2 16.7298 2 14.8889C2 13.0606 3.52707 11.554 5.34902 11.5556C5.35421 11.5556 5.3586 11.5516 5.35907 11.5465C5.64402 8.43609 8.25974 6 11.4444 6C13.8351 6 15.9052 7.37277 16.9093 9.37305C16.9113 9.3769 16.9155 9.37908 16.9198 9.37847C19.5452 9.00249 22 11.1049 22 13.7778C22 16.0824 20.2459 17.9773 18 18.2003L12.75 18.2099V14.8106L13.9696 16.0302C14.2625 16.3231 14.7374 16.3231 15.0303 16.0302C15.3232 15.7373 15.3232 15.2625 15.0303 14.9696L12.8839 12.8231C12.3957 12.335 11.6043 12.335 11.1161 12.8231L8.96967 14.9696C8.67678 15.2625 8.67678 15.7373 8.96967 16.0302C9.26256 16.3231 9.73744 16.3231 10.0303 16.0302L11.25 14.8106V18.2126L6 18.2222H5.33333ZM11.25 18.2126V21C11.25 21.4142 11.5858 21.75 12 21.75C12.4142 21.75 12.75 21.4142 12.75 21V18.2099L11.25 18.2126Z" fill="white"/>
</svg>
