<svg width="24" height="24" viewBox="0 0 24 24" fill="none" xmlns="http://www.w3.org/2000/svg">
<path fill-rule="evenodd" clip-rule="evenodd" d="M5.99951 3.24974C3.37616 3.24974 1.24951 5.37639 1.24951 7.99974L1.24951 9.22279C1.24951 9.78836 1.64379 10.1977 2.0703 10.3447C2.75754 10.5817 3.24951 11.2342 3.24951 11.9997C3.24951 12.7653 2.75754 13.4178 2.0703 13.6548C1.64379 13.8018 1.24951 14.2111 1.24951 14.7767L1.24951 15.9997C1.24951 18.6231 3.37616 20.7497 5.99951 20.7497L17.9995 20.7497C20.6229 20.7497 22.7495 18.6231 22.7495 15.9997L22.7495 14.7767C22.7495 14.2111 22.3552 13.8018 21.9287 13.6548C21.2415 13.4178 20.7495 12.7653 20.7495 11.9997C20.7495 11.2342 21.2415 10.5817 21.9287 10.3447C22.3552 10.1977 22.7495 9.78836 22.7495 9.22279L22.7495 7.99974C22.7495 5.37639 20.6229 3.24974 17.9995 3.24974L5.99951 3.24974ZM9.23815 10.358C9.54727 10.6672 10.0484 10.6672 10.3576 10.358C10.6667 10.0489 10.6667 9.54776 10.3576 9.23864C10.0484 8.92953 9.54727 8.92953 9.23815 9.23864C8.92904 9.54776 8.92904 10.0489 9.23815 10.358ZM14.7604 14.7609C14.4513 15.07 13.9501 15.07 13.641 14.7609C13.3319 14.4518 13.3319 13.9506 13.641 13.6415C13.9501 13.3324 14.4513 13.3324 14.7604 13.6415C15.0695 13.9506 15.0695 14.4518 14.7604 14.7609ZM14.7685 10.2913C15.0614 9.99841 15.0614 9.52353 14.7685 9.23064C14.4756 8.93775 14.0007 8.93775 13.7078 9.23064L9.23022 13.7083C8.93733 14.0011 8.93733 14.476 9.23022 14.7689C9.52312 15.0618 9.99799 15.0618 10.2909 14.7689L14.7685 10.2913Z" fill="white"/>
</svg>
