<svg width="24" height="24" viewBox="0 0 24 24" fill="none" xmlns="http://www.w3.org/2000/svg">
<path fill-rule="evenodd" clip-rule="evenodd" d="M14.0443 4.33557C14.8248 3.55393 16.0906 3.55345 16.8717 4.3345L19.3635 6.82635C20.1379 7.60074 20.146 8.85438 19.3816 9.63865L17.7217 11.3417L12.3812 6.00125L14.0443 4.33557ZM11.3213 7.06272L16.6746 12.416L10.1484 19.1119C9.58401 19.691 8.80989 20.0175 8.00154 20.0175L5.24939 20.0174C4.39656 20.0174 3.71549 19.3064 3.75135 18.4537L3.86951 15.6447C3.90111 14.8935 4.21333 14.1815 4.7444 13.6496L11.3213 7.06272ZM20.5149 20.6947C20.929 20.6947 21.2646 20.3588 21.2646 19.9444C21.2646 19.5301 20.929 19.1941 20.5149 19.1941H14.3932C13.9792 19.1941 13.6435 19.5301 13.6435 19.9444C13.6435 20.3588 13.9792 20.6947 14.3932 20.6947H20.5149Z" fill="white"/>
</svg>
