<svg width="24" height="24" viewBox="0 0 24 24" fill="none" xmlns="http://www.w3.org/2000/svg">
<path fill-rule="evenodd" clip-rule="evenodd" d="M5.5 11.9998C5.5 10.4351 6.76849 9.16667 8.33333 9.16667H11.1667V14.8332H8.33333C6.76852 14.8332 5.5 13.5646 5.5 11.9998ZM8.33333 8.16667H11.1667V2.5H8.33333C6.76853 2.5 5.5 3.76853 5.5 5.33333C5.5 6.89814 6.76852 8.16667 8.33333 8.16667ZM17.8333 5.33333C17.8333 6.89814 16.5648 8.16667 15 8.16667H12.1667V2.5H15C16.5648 2.5 17.8333 3.76853 17.8333 5.33333ZM12.1667 11.9998C12.1667 10.4351 13.4352 9.16667 15 9.16667C16.5648 9.16667 17.8333 10.4351 17.8333 11.9998C17.8333 13.5646 16.5648 14.8332 15 14.8332C13.4352 14.8332 12.1667 13.5646 12.1667 11.9998ZM8.33333 15.8332H11.1667V18.6668C11.1667 20.2316 9.89814 21.5002 8.33333 21.5002C6.76853 21.5002 5.5 20.2316 5.5 18.6668C5.5 17.102 6.76859 15.8332 8.33333 15.8332Z" fill="white"/>
</svg>
