<svg width="24" height="24" viewBox="0 0 24 24" fill="none" xmlns="http://www.w3.org/2000/svg">
<path fill-rule="evenodd" clip-rule="evenodd" d="M6.69509 17.2442C4.83558 16.2555 3.30102 14.7384 2.29254 12.8943C1.90248 12.181 1.90249 11.3188 2.29256 10.6056C4.11847 7.26686 7.66882 5 11.75 5C13.8073 5 15.7297 5.57604 17.3643 6.57504L14.6123 9.32708C13.9244 8.51529 12.8974 8 11.75 8C9.67893 8 8 9.67893 8 11.75C8 12.8974 8.51529 13.9244 9.32708 14.6123L6.69509 17.2442ZM8.16934 17.8913C9.28952 18.2855 10.4947 18.5 11.75 18.5C15.8312 18.5 19.3815 16.2331 21.2074 12.8944C21.5975 12.1812 21.5975 11.319 21.2075 10.6057C20.5464 9.39699 19.6594 8.32874 18.603 7.45768L15.3532 10.7075C15.4488 11.0384 15.5 11.3882 15.5 11.75C15.5 13.8211 13.8211 15.5 11.75 15.5C11.3882 15.5 11.0384 15.4488 10.7075 15.3532L8.16934 17.8913ZM11.75 11.75L10.1645 13.3464C9.75409 12.9388 9.5 12.3741 9.5 11.75C9.5 10.5074 10.5074 9.5 11.75 9.5C12.2625 9.5 12.7349 9.67132 13.1132 9.9598L11.75 11.75Z" fill="white"/>
<path d="M19 4L4 19" stroke="white" stroke-width="1.5" stroke-linecap="round" stroke-linejoin="round"/>
</svg>
