<svg width="52" height="52" viewBox="0 0 52 52" fill="none" xmlns="http://www.w3.org/2000/svg">
<path d="M4.40649 4.40631H47.5938" stroke="#AC0B05" stroke-width="5" stroke-linecap="round" stroke-linejoin="round"/>
<path d="M41.1159 4.40631H10.8847C9.69212 4.40631 8.72534 5.37309 8.72534 6.56568V45.4343C8.72534 46.6269 9.69212 47.5937 10.8847 47.5937H41.1159C42.3084 47.5937 43.2752 46.6269 43.2752 45.4343V6.56568C43.2752 5.37309 42.3084 4.40631 41.1159 4.40631Z" stroke="#AC0B05" stroke-width="5" stroke-linejoin="round"/>
<path d="M21.6814 34.6375H30.3189V47.5937H21.6814V34.6375Z" stroke="#AC0B05" stroke-width="5" stroke-linecap="round" stroke-linejoin="round"/>
<path d="M16.283 13.0438H18.4423M16.283 19.5219H18.4423M24.9204 13.0438H27.0798M24.9204 19.5219H27.0798M33.5579 13.0438H35.7173M33.5579 19.5219H35.7173" stroke="#AC0B05" stroke-width="5" stroke-linecap="round"/>
<path d="M4.40649 47.5937H47.5938M30.3189 34.6375H32.4783C33.0743 34.6375 33.5687 34.1494 33.4543 33.5643C32.8583 30.498 29.7477 28.1594 26.0002 28.1594C22.2537 28.1594 19.142 30.4969 18.546 33.5643C18.4316 34.1494 18.9261 34.6375 19.5221 34.6375H21.6814" stroke="#AC0B05" stroke-width="5" stroke-linecap="round" stroke-linejoin="round"/>
</svg>
