<svg width="39" height="37" viewBox="0 0 39 37" fill="none" xmlns="http://www.w3.org/2000/svg">
<rect x="0.899658" y="0.990479" width="37.4498" height="36" rx="18" fill="#FCB600"/>
<path d="M16.5081 19.0368C16.5081 17.3785 17.9057 16.0339 19.6303 16.0339C21.3548 16.0339 22.7532 17.3785 22.7532 19.0368C22.7532 20.6951 21.3548 22.0397 19.6303 22.0397C17.9057 22.0397 16.5081 20.6951 16.5081 19.0368ZM14.8199 19.0368C14.8199 21.5915 16.9735 23.6623 19.6303 23.6623C22.2871 23.6623 24.4407 21.5915 24.4407 19.0368C24.4407 16.4821 22.2871 14.4113 19.6303 14.4113C16.9735 14.4113 14.8199 16.4821 14.8199 19.0368ZM23.5069 14.2279C23.5068 14.4417 23.5727 14.6507 23.6961 14.8285C23.8196 15.0063 23.9951 15.145 24.2005 15.2268C24.4059 15.3087 24.6319 15.3302 24.85 15.2886C25.0681 15.247 25.2684 15.1441 25.4257 14.993C25.583 14.8419 25.6901 14.6493 25.7336 14.4396C25.777 14.23 25.7549 14.0126 25.6699 13.8151C25.5849 13.6175 25.4408 13.4486 25.256 13.3298C25.0712 13.2109 24.8539 13.1475 24.6315 13.1474H24.6311C24.3331 13.1475 24.0473 13.2614 23.8365 13.464C23.6257 13.6666 23.5072 13.9413 23.5069 14.2279ZM15.8456 26.3691C14.9322 26.3291 14.4358 26.1828 14.1059 26.0592C13.6685 25.8955 13.3564 25.7005 13.0283 25.3854C12.7002 25.0704 12.4971 24.7706 12.3276 24.35C12.199 24.0329 12.0469 23.5554 12.0053 22.6772C11.9599 21.7277 11.9509 21.4424 11.9509 19.0369C11.9509 16.6313 11.9607 16.3469 12.0053 15.3966C12.0469 14.5183 12.2002 14.0418 12.3276 13.7237C12.4979 13.3032 12.7007 13.0031 13.0283 12.6876C13.356 12.3721 13.6678 12.1768 14.1059 12.0138C14.4356 11.8901 14.9322 11.7439 15.8456 11.7039C16.833 11.6603 17.1297 11.6515 19.6303 11.6515C22.1309 11.6515 22.4278 11.661 23.4161 11.7039C24.3294 11.7439 24.8251 11.8913 25.1558 12.0138C25.5932 12.1768 25.9052 12.3725 26.2333 12.6876C26.5614 13.0027 26.7638 13.3032 26.9341 13.7237C27.0627 14.0408 27.2148 14.5183 27.2563 15.3966C27.3017 16.3469 27.3108 16.6313 27.3108 19.0369C27.3108 21.4424 27.3017 21.7269 27.2563 22.6772C27.2147 23.5554 27.0619 24.0328 26.9341 24.35C26.7638 24.7706 26.561 25.0707 26.2333 25.3854C25.9057 25.7002 25.5932 25.8955 25.1558 26.0592C24.826 26.1829 24.3294 26.3292 23.4161 26.3691C22.4286 26.4128 22.132 26.4215 19.6303 26.4215C17.1286 26.4215 16.8327 26.4128 15.8456 26.3691ZM15.768 10.0834C14.7707 10.127 14.0893 10.2791 13.4941 10.5018C12.8778 10.7317 12.356 11.0402 11.8346 11.5408C11.3132 12.0413 10.9932 12.5438 10.7541 13.1365C10.5225 13.7091 10.3644 14.364 10.3189 15.323C10.2728 16.2835 10.2622 16.5905 10.2622 19.0368C10.2622 21.4831 10.2728 21.7902 10.3189 22.7506C10.3644 23.7097 10.5225 24.3645 10.7541 24.9371C10.9932 25.5294 11.3133 26.0325 11.8346 26.5328C12.3559 27.0332 12.8778 27.3412 13.4941 27.5719C14.0904 27.7945 14.7707 27.9466 15.768 27.9903C16.7674 28.0339 17.0862 28.0448 19.6303 28.0448C22.1743 28.0448 22.4937 28.0346 23.4925 27.9903C24.4899 27.9466 25.1709 27.7945 25.7664 27.5719C26.3824 27.3412 26.9045 27.0334 27.4259 26.5328C27.9473 26.0323 28.2667 25.5294 28.5065 24.9371C28.7381 24.3645 28.8969 23.7096 28.9416 22.7506C28.987 21.7894 28.9976 21.4831 28.9976 19.0368C28.9976 16.5905 28.987 16.2835 28.9416 15.323C28.8962 14.364 28.7381 13.7088 28.5065 13.1365C28.2667 12.5442 27.9465 12.0421 27.4259 11.5408C26.9054 11.0394 26.3824 10.7317 25.7672 10.5018C25.1709 10.2791 24.4898 10.1263 23.4933 10.0834C22.4944 10.0397 22.1751 10.0288 19.631 10.0288C17.087 10.0288 16.7674 10.039 15.768 10.0834Z" fill="#8F010A"/>
<path d="M16.5081 19.0368C16.5081 17.3785 17.9057 16.0339 19.6303 16.0339C21.3548 16.0339 22.7532 17.3785 22.7532 19.0368C22.7532 20.6951 21.3548 22.0397 19.6303 22.0397C17.9057 22.0397 16.5081 20.6951 16.5081 19.0368ZM14.8199 19.0368C14.8199 21.5915 16.9735 23.6623 19.6303 23.6623C22.2871 23.6623 24.4407 21.5915 24.4407 19.0368C24.4407 16.4821 22.2871 14.4113 19.6303 14.4113C16.9735 14.4113 14.8199 16.4821 14.8199 19.0368ZM23.5069 14.2279C23.5068 14.4417 23.5727 14.6507 23.6961 14.8285C23.8196 15.0063 23.9951 15.145 24.2005 15.2268C24.4059 15.3087 24.6319 15.3302 24.85 15.2886C25.0681 15.247 25.2684 15.1441 25.4257 14.993C25.583 14.8419 25.6901 14.6493 25.7336 14.4396C25.777 14.23 25.7549 14.0126 25.6699 13.8151C25.5849 13.6175 25.4408 13.4486 25.256 13.3298C25.0712 13.2109 24.8539 13.1475 24.6315 13.1474H24.6311C24.3331 13.1475 24.0473 13.2614 23.8365 13.464C23.6257 13.6666 23.5072 13.9413 23.5069 14.2279ZM15.8456 26.3691C14.9322 26.3291 14.4358 26.1828 14.1059 26.0592C13.6685 25.8955 13.3564 25.7005 13.0283 25.3854C12.7002 25.0704 12.4971 24.7706 12.3276 24.35C12.199 24.0329 12.0469 23.5554 12.0053 22.6772C11.9599 21.7277 11.9509 21.4424 11.9509 19.0369C11.9509 16.6313 11.9607 16.3469 12.0053 15.3966C12.0469 14.5183 12.2002 14.0418 12.3276 13.7237C12.4979 13.3032 12.7007 13.0031 13.0283 12.6876C13.356 12.3721 13.6678 12.1768 14.1059 12.0138C14.4356 11.8901 14.9322 11.7439 15.8456 11.7039C16.833 11.6603 17.1297 11.6515 19.6303 11.6515C22.1309 11.6515 22.4278 11.661 23.4161 11.7039C24.3294 11.7439 24.8251 11.8913 25.1558 12.0138C25.5932 12.1768 25.9052 12.3725 26.2333 12.6876C26.5614 13.0027 26.7638 13.3032 26.9341 13.7237C27.0627 14.0408 27.2148 14.5183 27.2563 15.3966C27.3017 16.3469 27.3108 16.6313 27.3108 19.0369C27.3108 21.4424 27.3017 21.7269 27.2563 22.6772C27.2147 23.5554 27.0619 24.0328 26.9341 24.35C26.7638 24.7706 26.561 25.0707 26.2333 25.3854C25.9057 25.7002 25.5932 25.8955 25.1558 26.0592C24.826 26.1829 24.3294 26.3292 23.4161 26.3691C22.4286 26.4128 22.132 26.4215 19.6303 26.4215C17.1286 26.4215 16.8327 26.4128 15.8456 26.3691ZM15.768 10.0834C14.7707 10.127 14.0893 10.2791 13.4941 10.5018C12.8778 10.7317 12.356 11.0402 11.8346 11.5408C11.3132 12.0413 10.9932 12.5438 10.7541 13.1365C10.5225 13.7091 10.3644 14.364 10.3189 15.323C10.2728 16.2835 10.2622 16.5905 10.2622 19.0368C10.2622 21.4831 10.2728 21.7902 10.3189 22.7506C10.3644 23.7097 10.5225 24.3645 10.7541 24.9371C10.9932 25.5294 11.3133 26.0325 11.8346 26.5328C12.3559 27.0332 12.8778 27.3412 13.4941 27.5719C14.0904 27.7945 14.7707 27.9466 15.768 27.9903C16.7674 28.0339 17.0862 28.0448 19.6303 28.0448C22.1743 28.0448 22.4937 28.0346 23.4925 27.9903C24.4899 27.9466 25.1709 27.7945 25.7664 27.5719C26.3824 27.3412 26.9045 27.0334 27.4259 26.5328C27.9473 26.0323 28.2667 25.5294 28.5065 24.9371C28.7381 24.3645 28.8969 23.7096 28.9416 22.7506C28.987 21.7894 28.9976 21.4831 28.9976 19.0368C28.9976 16.5905 28.987 16.2835 28.9416 15.323C28.8962 14.364 28.7381 13.7088 28.5065 13.1365C28.2667 12.5442 27.9465 12.0421 27.4259 11.5408C26.9054 11.0394 26.3824 10.7317 25.7672 10.5018C25.1709 10.2791 24.4898 10.1263 23.4933 10.0834C22.4944 10.0397 22.1751 10.0288 19.631 10.0288C17.087 10.0288 16.7674 10.039 15.768 10.0834Z" fill="#8F010A"/>
</svg>
