<svg width="108" height="108" viewBox="0 0 108 108" fill="none" xmlns="http://www.w3.org/2000/svg">
<g filter="url(#filter0_d_193_4045)">
<circle cx="54" cy="51" r="50" fill="#8F010A"/>
</g>
<path d="M26.8883 42.9578V42.9148C26.8883 38.6723 28.0779 34.5248 30.307 30.9955C32.5362 27.4663 35.7051 24.7135 39.4138 23.0844C43.1226 21.4553 47.2051 21.0229 51.1463 21.8418C55.0875 22.6606 58.7108 24.6941 61.559 27.6855C63.8 26.5173 66.3031 26.0261 68.7918 26.2662C71.2806 26.5064 73.658 27.4685 75.6615 29.0463C77.665 30.6242 79.2165 32.7563 80.1446 35.2071C81.0728 37.6579 81.3414 40.332 80.9209 42.9339C81.5392 42.9945 82.139 43.1891 82.6829 43.5055C83.2269 43.8218 83.7032 44.2532 84.0823 44.7727C84.4613 45.2922 84.7349 45.8886 84.886 46.5248C85.0371 47.1609 85.0624 47.8232 84.9604 48.4701C82.9181 61.4467 77.8663 69.6603 69.8143 73.1157V76.3229C69.8143 78.2215 69.1002 80.0424 67.8292 81.3849C66.5581 82.7275 64.8341 83.4817 63.0365 83.4817H44.9624C43.1648 83.4817 41.4409 82.7275 40.1698 81.3849C38.8987 80.0424 38.1846 78.2215 38.1846 76.3229V73.1157C30.1326 69.6603 25.0809 61.4467 23.0385 48.4701C22.94 47.8403 22.962 47.1961 23.1033 46.5755C23.2447 45.9549 23.5025 45.3705 23.8614 44.857C24.2204 44.3435 24.6732 43.9112 25.1931 43.5858C25.713 43.2604 26.2895 43.0485 26.8883 42.9626V42.9578ZM31.4068 42.9148H35.9254C35.9254 39.7504 37.1155 36.7156 39.234 34.478C41.3525 32.2405 44.2257 30.9834 47.2217 30.9834C50.2177 30.9834 53.0909 32.2405 55.2094 34.478C57.3279 36.7156 58.518 39.7504 58.518 42.9148H63.0365C63.0365 38.4847 61.3703 34.2359 58.4045 31.1033C55.4386 27.9707 51.416 26.2108 47.2217 26.2108C43.0273 26.2108 39.0048 27.9707 36.0389 31.1033C33.073 34.2359 31.4068 38.4847 31.4068 42.9148ZM40.4439 42.9148H53.9995C53.9995 41.0162 53.2854 39.1953 52.0143 37.8527C50.7432 36.5102 49.0193 35.756 47.2217 35.756C45.4241 35.756 43.7002 36.5102 42.4291 37.8527C41.158 39.1953 40.4439 41.0162 40.4439 42.9148ZM71.4681 42.9148H76.3075C76.6486 41.5044 76.6804 40.0303 76.4004 38.605C76.1205 37.1796 75.5362 35.8405 74.6921 34.6898C73.8479 33.539 72.7663 32.607 71.5294 31.9647C70.2926 31.3224 68.9333 30.9868 67.5551 30.9834C66.4706 30.9834 65.4404 31.1838 64.4825 31.5513C65.2822 32.9067 65.942 34.3672 66.448 35.8991C67.3087 35.6737 68.213 35.7201 69.0489 36.0327C69.8847 36.3452 70.6153 36.9101 71.15 37.6573C71.6846 38.4044 71.9997 39.301 72.0563 40.2356C72.1129 41.1702 71.9083 42.1019 71.4681 42.9148ZM65.2958 73.9366H42.7032V76.3229C42.7032 76.9557 42.9412 77.5627 43.3649 78.0102C43.7886 78.4577 44.3632 78.7091 44.9624 78.7091H63.0365C63.6357 78.7091 64.2104 78.4577 64.6341 78.0102C65.0578 77.5627 65.2958 76.9557 65.2958 76.3229V73.9366ZM41.1126 69.164H66.8863C74.0527 66.73 78.5893 59.8479 80.5052 47.6874H27.4938C29.4097 59.8479 33.9463 66.73 41.1126 69.164Z" fill="#FCB600"/>
<defs>
<filter id="filter0_d_193_4045" x="0" y="0" width="108" height="108" filterUnits="userSpaceOnUse" color-interpolation-filters="sRGB">
<feFlood flood-opacity="0" result="BackgroundImageFix"/>
<feColorMatrix in="SourceAlpha" type="matrix" values="0 0 0 0 0 0 0 0 0 0 0 0 0 0 0 0 0 0 127 0" result="hardAlpha"/>
<feOffset dy="3"/>
<feGaussianBlur stdDeviation="2"/>
<feComposite in2="hardAlpha" operator="out"/>
<feColorMatrix type="matrix" values="0 0 0 0 0 0 0 0 0 0 0 0 0 0 0 0 0 0 0.25 0"/>
<feBlend mode="normal" in2="BackgroundImageFix" result="effect1_dropShadow_193_4045"/>
<feBlend mode="normal" in="SourceGraphic" in2="effect1_dropShadow_193_4045" result="shape"/>
</filter>
</defs>
</svg>
