<svg width="24" height="24" viewBox="0 0 24 24" fill="none" xmlns="http://www.w3.org/2000/svg">
<path fill-rule="evenodd" clip-rule="evenodd" d="M13 2H18C20.2091 2 22 3.79086 22 6V18C22 20.2091 20.2091 22 18 22H13C10.7909 22 9 20.2091 9 18V16V12.75L15.1893 12.75L13.4697 14.4697C13.1768 14.7626 13.1768 15.2374 13.4697 15.5303C13.7626 15.8232 14.2374 15.8232 14.5303 15.5303L16.8232 13.2374C17.5066 12.554 17.5066 11.446 16.8232 10.7626L14.5303 8.46967C14.2374 8.17678 13.7626 8.17678 13.4697 8.46967C13.1768 8.76256 13.1768 9.23744 13.4697 9.53033L15.1893 11.25L9 11.25V8V6C9 3.79086 10.7909 2 13 2ZM9 11.25H4C3.58579 11.25 3.25 11.5858 3.25 12C3.25 12.4142 3.58579 12.75 4 12.75H9V11.25Z" fill="white"/>
</svg>
