<svg width="24" height="24" viewBox="0 0 24 24" fill="none" xmlns="http://www.w3.org/2000/svg">
<path fill-rule="evenodd" clip-rule="evenodd" d="M7 2H12C14.2091 2 16 3.79086 16 6V11.25L9 11.25C8.58579 11.25 8.25 11.5858 8.25 12C8.25 12.4142 8.58579 12.75 9 12.75L16 12.75V18C16 20.2091 14.2091 22 12 22H7C4.79086 22 3 20.2091 3 18V16V8V6C3 3.79086 4.79086 2 7 2ZM16 12.75H20.1893L18.4697 14.4697C18.1768 14.7626 18.1768 15.2374 18.4697 15.5303C18.7626 15.8232 19.2374 15.8232 19.5303 15.5303L21.8232 13.2374C22.5066 12.554 22.5066 11.446 21.8232 10.7626L19.5303 8.46967C19.2374 8.17678 18.7626 8.17678 18.4697 8.46967C18.1768 8.76256 18.1768 9.23744 18.4697 9.53033L20.1893 11.25H16V12.75Z" fill="white"/>
</svg>
