<svg width="108" height="108" viewBox="0 0 108 108" fill="none" xmlns="http://www.w3.org/2000/svg">
<g filter="url(#filter0_d_377_456)">
<circle cx="54" cy="51" r="50" fill="#8F010A"/>
</g>
<g clip-path="url(#clip0_377_456)">
<path d="M36.2774 40.5912C29.3696 40.5912 23.708 46.2354 23.708 53.1246C23.708 55.7941 24.5603 58.2751 26.0034 60.3143L34.7439 75.4238C35.9679 77.0231 36.7819 76.7197 37.8 75.34L47.4401 58.934C47.6347 58.5809 47.7873 58.2062 47.9208 57.8232C48.5325 56.3322 48.847 54.7362 48.8467 53.1246C48.8467 46.2354 43.1869 40.5912 36.2774 40.5912ZM36.2774 46.4641C39.9979 46.4641 42.9571 49.4155 42.9571 53.1252C42.9571 56.835 39.9979 59.7852 36.2774 59.7852C32.5574 59.7852 29.5976 56.8344 29.5976 53.1252C29.5976 49.4155 32.5574 46.4641 36.2774 46.4641Z" fill="#EBAA00"/>
<path d="M76.2298 21.4379C72.2004 21.4379 68.8977 24.7305 68.8977 28.7497C68.8977 30.3065 69.3945 31.7538 70.2366 32.9431L75.3356 41.7572C76.0497 42.6897 76.5243 42.5125 77.1181 41.7081L82.7413 32.1374C82.8551 31.9321 82.9442 31.7137 83.0215 31.4898C83.3784 30.6204 83.562 29.6896 83.5619 28.7497C83.5619 24.7299 80.2604 21.4379 76.2298 21.4379ZM76.2298 24.864C78.4001 24.864 80.1263 26.5854 80.1263 28.7497C80.1263 30.9134 78.4001 32.6342 76.2298 32.6342C74.0601 32.6342 72.3333 30.9134 72.3333 28.7497C72.3333 26.5854 74.0601 24.864 76.2298 24.864Z" fill="#EBAA00"/>
<path fill-rule="evenodd" clip-rule="evenodd" d="M76.5047 43.8305C75.1598 43.8604 73.8112 43.9173 72.4603 44.0173L72.6686 47.3284C73.9663 47.2344 75.2661 47.1739 76.5669 47.147L76.5047 43.8305ZM69.3372 44.3213C67.2602 44.5793 65.1653 44.9468 63.0944 45.5375L63.8743 48.7463C65.7561 48.21 67.7061 47.8635 69.6867 47.6175L69.3372 44.3213ZM59.9933 46.6484C59.3728 46.9223 58.7721 47.2389 58.1953 47.5959L58.1929 47.5989L58.1893 47.6001C57.3664 48.1184 56.4991 48.7762 55.791 49.7321C55.278 50.4246 54.8585 51.3003 54.7603 52.3358L57.8099 52.6739C57.8326 52.4309 57.9571 52.1101 58.181 51.8084H58.1822V51.8073C58.5431 51.3188 59.0842 50.8753 59.7276 50.4695L59.73 50.4683C60.1886 50.1853 60.6662 49.9341 61.1593 49.7165L59.9933 46.6484ZM58.4234 54.1511L56.4464 56.686C56.9151 57.1145 57.4065 57.4437 57.8811 57.719L57.8871 57.722L57.8931 57.7256C59.4684 58.6216 61.0929 59.1274 62.5988 59.6074L63.4643 56.4244C61.9589 55.9444 60.5398 55.4811 59.3236 54.7904C58.9752 54.5881 58.67 54.3768 58.4234 54.1511ZM66.4049 57.3198L65.5598 60.5082L65.9596 60.6327L66.4504 60.7895C68.0748 61.3181 69.631 61.8825 71.022 62.6636L72.4334 59.7188C70.7515 58.7737 69.0056 58.156 67.3231 57.6089L67.3183 57.6077L66.8143 57.4467L66.4049 57.3198ZM75.3034 61.9286L73.1349 64.2748C73.6472 64.8297 74.0309 65.4971 74.2177 66.1866L74.2188 66.1902L74.22 66.1956C74.4427 67.0006 74.4433 67.9475 74.2691 68.904L77.2762 69.5456C77.5216 68.1953 77.5611 66.7127 77.1577 65.2493C76.8063 63.9552 76.136 62.8312 75.3034 61.9286ZM73.2193 70.9031C72.8879 71.2531 72.5217 71.5683 72.1263 71.844H72.1252C71.0478 72.6017 69.798 73.1727 68.4705 73.6635L69.4605 76.8023C70.9125 76.2654 72.4035 75.607 73.7969 74.6266L73.8005 74.6236L73.8023 74.6224C74.3745 74.2217 74.9038 73.763 75.3818 73.2535L73.2193 70.9031ZM65.6537 74.5476C63.7306 75.0647 61.765 75.4586 59.7755 75.7925L60.2447 79.072C62.2923 78.7278 64.3483 78.3166 66.3917 77.7671L65.6537 74.5476ZM56.7822 76.245C54.7795 76.5186 52.766 76.7418 50.7465 76.9322L51.0111 80.2373C53.0617 80.0446 55.1158 79.8177 57.167 79.537L56.7822 76.245ZM47.7113 77.1925C45.6876 77.3529 43.6592 77.4834 41.6289 77.5936L41.7822 80.9071C43.8322 80.7963 45.884 80.6641 47.9352 80.5013L47.7113 77.1925ZM38.5782 77.7432C37.3613 77.8001 36.1415 77.8467 34.9187 77.8898L35.0193 81.2063C36.2497 81.164 37.4799 81.115 38.7099 81.0591L38.5782 77.7432Z" fill="#EBAA00"/>
</g>
<defs>
<filter id="filter0_d_377_456" x="0" y="0" width="108" height="108" filterUnits="userSpaceOnUse" color-interpolation-filters="sRGB">
<feFlood flood-opacity="0" result="BackgroundImageFix"/>
<feColorMatrix in="SourceAlpha" type="matrix" values="0 0 0 0 0 0 0 0 0 0 0 0 0 0 0 0 0 0 127 0" result="hardAlpha"/>
<feOffset dy="3"/>
<feGaussianBlur stdDeviation="2"/>
<feComposite in2="hardAlpha" operator="out"/>
<feColorMatrix type="matrix" values="0 0 0 0 0 0 0 0 0 0 0 0 0 0 0 0 0 0 0.25 0"/>
<feBlend mode="normal" in2="BackgroundImageFix" result="effect1_dropShadow_377_456"/>
<feBlend mode="normal" in="SourceGraphic" in2="effect1_dropShadow_377_456" result="shape"/>
</filter>
<clipPath id="clip0_377_456">
<rect width="59.854" height="59.854" fill="white" transform="translate(23.708 21.4379)"/>
</clipPath>
</defs>
</svg>
