<svg width="61" height="61" viewBox="0 0 61 61" fill="none" xmlns="http://www.w3.org/2000/svg">
<g clip-path="url(#clip0_238_3279)">
<path d="M13.2774 19.5912C6.3696 19.5912 0.708008 25.2354 0.708008 32.1246C0.708008 34.7941 1.56033 37.2751 3.00341 39.3143L11.7439 54.4238C12.9679 56.0231 13.7819 55.7197 14.8 54.34L24.4401 37.934C24.6347 37.5809 24.7873 37.2062 24.9208 36.8232C25.5325 35.3322 25.847 33.7362 25.8467 32.1246C25.8467 25.2354 20.1869 19.5912 13.2774 19.5912ZM13.2774 25.4641C16.9979 25.4641 19.9571 28.4155 19.9571 32.1252C19.9571 35.835 16.9979 38.7852 13.2774 38.7852C9.55742 38.7852 6.59764 35.8344 6.59764 32.1252C6.59764 28.4155 9.55742 25.4641 13.2774 25.4641Z" fill="#EBAA00"/>
<path d="M53.2298 0.437927C49.2004 0.437927 45.8977 3.7305 45.8977 7.74969C45.8977 9.3065 46.3945 10.7538 47.2366 11.9431L52.3356 20.7572C53.0497 21.6897 53.5243 21.5125 54.1181 20.7081L59.7413 11.1374C59.8551 10.9321 59.9442 10.7137 60.0215 10.4898C60.3784 9.62038 60.562 8.68956 60.5619 7.74969C60.5619 3.7299 57.2604 0.437927 53.2298 0.437927ZM53.2298 3.86397C55.4001 3.86397 57.1263 5.58537 57.1263 7.74969C57.1263 9.91342 55.4001 11.6342 53.2298 11.6342C51.0601 11.6342 49.3333 9.91342 49.3333 7.74969C49.3333 5.58537 51.0601 3.86397 53.2298 3.86397Z" fill="#EBAA00"/>
<path fill-rule="evenodd" clip-rule="evenodd" d="M53.5047 22.8305C52.1598 22.8604 50.8112 22.9173 49.4603 23.0173L49.6686 26.3284C50.9663 26.2344 52.2661 26.1739 53.5669 26.147L53.5047 22.8305ZM46.3372 23.3213C44.2602 23.5793 42.1653 23.9468 40.0944 24.5375L40.8743 27.7463C42.7561 27.21 44.7061 26.8635 46.6867 26.6175L46.3372 23.3213ZM36.9933 25.6484C36.3728 25.9223 35.7721 26.2389 35.1953 26.5959L35.1929 26.5989L35.1893 26.6001C34.3664 27.1184 33.4991 27.7762 32.791 28.7321C32.278 29.4246 31.8585 30.3003 31.7603 31.3358L34.8099 31.6739C34.8326 31.4309 34.9571 31.1101 35.181 30.8084H35.1822V30.8073C35.5431 30.3188 36.0842 29.8753 36.7276 29.4695L36.73 29.4683C37.1886 29.1853 37.6662 28.9341 38.1593 28.7165L36.9933 25.6484ZM35.4234 33.1511L33.4464 35.686C33.9151 36.1145 34.4065 36.4437 34.8811 36.719L34.8871 36.722L34.8931 36.7256C36.4684 37.6216 38.0929 38.1274 39.5988 38.6074L40.4643 35.4244C38.9589 34.9444 37.5398 34.4811 36.3236 33.7904C35.9752 33.5881 35.67 33.3768 35.4234 33.1511ZM43.4049 36.3198L42.5598 39.5082L42.9596 39.6327L43.4504 39.7895C45.0748 40.3181 46.631 40.8825 48.022 41.6636L49.4334 38.7188C47.7515 37.7737 46.0056 37.156 44.3231 36.6089L44.3183 36.6077L43.8143 36.4467L43.4049 36.3198ZM52.3034 40.9286L50.1349 43.2748C50.6472 43.8297 51.0309 44.4971 51.2177 45.1866L51.2188 45.1902L51.22 45.1956C51.4427 46.0006 51.4433 46.9475 51.2691 47.904L54.2762 48.5456C54.5216 47.1953 54.5611 45.7127 54.1577 44.2493C53.8063 42.9552 53.136 41.8312 52.3034 40.9286ZM50.2193 49.9031C49.8879 50.2531 49.5217 50.5683 49.1263 50.844H49.1252C48.0478 51.6017 46.798 52.1727 45.4705 52.6635L46.4605 55.8023C47.9125 55.2654 49.4035 54.607 50.7969 53.6266L50.8005 53.6236L50.8023 53.6224C51.3745 53.2217 51.9038 52.763 52.3818 52.2535L50.2193 49.9031ZM42.6537 53.5476C40.7306 54.0647 38.765 54.4586 36.7755 54.7925L37.2447 58.072C39.2923 57.7278 41.3483 57.3166 43.3917 56.7671L42.6537 53.5476ZM33.7822 55.245C31.7795 55.5186 29.766 55.7418 27.7465 55.9322L28.0111 59.2373C30.0617 59.0446 32.1158 58.8177 34.167 58.537L33.7822 55.245ZM24.7113 56.1925C22.6876 56.3529 20.6592 56.4834 18.6289 56.5936L18.7822 59.9071C20.8322 59.7963 22.884 59.6641 24.9352 59.5013L24.7113 56.1925ZM15.5782 56.7432C14.3613 56.8001 13.1415 56.8467 11.9187 56.8898L12.0193 60.2063C13.2497 60.164 14.4799 60.115 15.7099 60.0591L15.5782 56.7432Z" fill="#EBAA00"/>
</g>
<defs>
<clipPath id="clip0_238_3279">
<rect width="59.854" height="59.854" fill="white" transform="translate(0.708008 0.437927)"/>
</clipPath>
</defs>
</svg>
