<svg width="38" height="37" viewBox="0 0 38 37" fill="none" xmlns="http://www.w3.org/2000/svg">
<rect x="0.449707" y="0.990479" width="37.4498" height="36" rx="18" fill="#FCB600"/>
<path d="M28.4674 13.291C27.849 13.547 27.1989 13.7253 26.5332 13.8215C26.8445 13.7701 27.3024 13.2311 27.4847 13.0129C27.7617 12.6838 27.9728 12.3081 28.1072 11.9049C28.1072 11.875 28.1383 11.8322 28.1072 11.8108C28.0915 11.8026 28.074 11.7983 28.0561 11.7983C28.0382 11.7983 28.0206 11.8026 28.005 11.8108C27.2821 12.1875 26.5127 12.4749 25.7151 12.6664C25.6873 12.6746 25.6577 12.6753 25.6295 12.6685C25.6013 12.6618 25.5756 12.6477 25.555 12.6279C25.4929 12.5568 25.4261 12.4896 25.3549 12.4268C25.0296 12.1464 24.6605 11.9169 24.2611 11.7466C23.722 11.5338 23.1397 11.4417 22.5582 11.4771C21.9939 11.5114 21.443 11.657 20.9397 11.9049C20.4441 12.1663 20.0085 12.5213 19.6592 12.9488C19.2917 13.3887 19.0264 13.8992 18.8811 14.4461C18.7613 14.9662 18.7477 15.5038 18.8411 16.0289C18.8411 16.1188 18.8411 16.1316 18.761 16.1188C15.5908 15.6696 12.9897 14.5872 10.8643 12.2643C10.7709 12.1616 10.722 12.1616 10.6464 12.2643C9.72161 13.6161 10.1707 15.7551 11.3267 16.8118C11.4824 16.953 11.6424 17.0899 11.8114 17.2182C11.2813 17.182 10.7643 17.0438 10.2907 16.8118C10.2018 16.7562 10.1529 16.7861 10.1485 16.8888C10.1359 17.0311 10.1359 17.1743 10.1485 17.3166C10.2412 17.9988 10.5207 18.645 10.9581 19.1892C11.3956 19.7334 11.9755 20.156 12.6384 20.4139C12.8 20.4805 12.9684 20.5307 13.1408 20.5636C12.6502 20.6566 12.1469 20.671 11.6513 20.6064C11.5446 20.585 11.5046 20.6406 11.5446 20.739C12.1982 22.4502 13.6166 22.9721 14.657 23.263C14.7993 23.2844 14.9416 23.2844 15.1017 23.3186C15.1017 23.3186 15.1017 23.3186 15.075 23.3443C14.7682 23.8833 13.5277 24.247 12.9585 24.4352C11.9197 24.7942 10.8122 24.9314 9.71272 24.8373C9.53931 24.8117 9.49929 24.816 9.45483 24.8373C9.41037 24.8587 9.45483 24.9058 9.50374 24.9486C9.72606 25.0897 9.94837 25.2138 10.1796 25.3336C10.8679 25.6948 11.5956 25.9817 12.3494 26.1892C16.2533 27.2245 20.6463 26.463 23.5764 23.6609C25.8796 21.462 26.6888 18.4289 26.6888 15.3915C26.6888 15.276 26.8356 15.2075 26.92 15.1477C27.5027 14.7108 28.0165 14.1949 28.4451 13.6161C28.5194 13.5299 28.5574 13.42 28.5519 13.3081C28.5519 13.2439 28.5519 13.2568 28.4674 13.291Z" fill="#8F010A"/>
</svg>
