<svg width="24" height="24" viewBox="0 0 24 24" fill="none" xmlns="http://www.w3.org/2000/svg">
<path fill-rule="evenodd" clip-rule="evenodd" d="M7 6C4.23858 6 2 8.23858 2 11V17C2 19.7614 4.23858 22 7 22H17C19.6776 22 21.8636 19.8953 21.9939 17.25H17.5C15.7051 17.25 14.25 15.7949 14.25 14C14.25 12.2051 15.7051 10.75 17.5 10.75H21.9939C21.8636 8.10472 19.6776 6 17 6H7ZM17.5 12.25H22V15.75H17.5C16.5335 15.75 15.75 14.9665 15.75 14C15.75 13.0335 16.5335 12.25 17.5 12.25ZM6 16.75C5.58579 16.75 5.25 17.0858 5.25 17.5C5.25 17.9142 5.58579 18.25 6 18.25H12C12.4142 18.25 12.75 17.9142 12.75 17.5C12.75 17.0858 12.4142 16.75 12 16.75H6ZM17.5 13.25C17.0858 13.25 16.75 13.5858 16.75 14C16.75 14.4142 17.0858 14.75 17.5 14.75H17.7C18.1142 14.75 18.45 14.4142 18.45 14C18.45 13.5858 18.1142 13.25 17.7 13.25H17.5Z" fill="white"/>
<path d="M19.4878 4.99253C18.7667 3.00116 16.6606 1.71551 14.4414 2.17241L5.84064 3.94315C4.04426 4.31299 2.58887 5.49722 1.82764 7.06256C3.0151 5.50481 4.89022 4.49951 7.00015 4.49951H17.0001C17.8813 4.49951 18.7215 4.67485 19.4878 4.99253Z" fill="white"/>
</svg>
